<?xml version="1.0" encoding="iso-8859-1"?>
<!-- Uploaded to: SVG Repo, www.svgrepo.com, Generator: SVG Repo Mixer Tools -->
<svg fill="#000000" height="800px" width="800px" version="1.1" id="Capa_1" xmlns="http://www.w3.org/2000/svg" xmlns:xlink="http://www.w3.org/1999/xlink" 
	 viewBox="0 0 420 420" xml:space="preserve">
<g>
	<g id="Layer_1_64_">
		<path d="M297.562,131.459c-1.225-6.299-4.833-11.882-10.075-15.583c-6.71-4.738-13.996-8.813-21.704-12.179l-37.434-71.215h55.548
			c8.97,0,16.241-7.271,16.241-16.242c0-8.97-7.271-16.24-16.241-16.24H136.102c-8.97,0-16.241,7.271-16.241,16.24
			c0,8.972,7.271,16.242,16.241,16.242h55.548l-37.433,71.21c-7.708,3.369-14.997,7.445-21.709,12.186
			c-5.24,3.701-8.848,9.284-10.072,15.581c-16.613,85.525-16.613,168.679,0,254.205c1.224,6.297,4.833,11.878,10.073,15.58
			C156.48,418.172,194.686,420,210,420c15.313,0,53.518-1.828,77.488-18.756c5.241-3.702,8.85-9.283,10.074-15.58
			C314.178,300.138,314.178,216.984,297.562,131.459z M171.999,363.628c0.957,5.9-3.052,11.461-8.955,12.419
			c-0.586,0.096-1.172,0.143-1.748,0.143c-5.215,0-9.811-3.777-10.673-9.095c-0.855-5.261-20.691-129.848,0.183-213.341
			c1.451-5.802,7.327-9.331,13.131-7.877c5.802,1.447,9.329,7.326,7.879,13.131C152.03,238.146,171.797,362.381,171.999,363.628z
			 M209.996,92.247c-4.499,0-8.972,0.235-13.405,0.649L210,67.39l13.409,25.509C218.971,92.482,214.497,92.247,209.996,92.247z"/>
	</g>
</g>
</svg>